<svg width="17" height="16" viewBox="0 0 17 16" fill="none" xmlns="http://www.w3.org/2000/svg">
<g clip-path="url(#clip0_412_3871)">
<path fill-rule="evenodd" clip-rule="evenodd" d="M7.96089 0.662989C7.79216 0.670572 7.62811 0.720761 7.48402 0.808893C7.33993 0.897025 7.22049 1.02023 7.13688 1.16699L0.136884 13.505C0.050478 13.6571 0.00547367 13.8291 0.00636051 14.0041C0.00724736 14.179 0.0540062 14.3506 0.14195 14.5018C0.229894 14.653 0.355952 14.7784 0.507551 14.8657C0.659149 14.9529 0.830991 14.9989 1.0059 14.999H15.0059C15.1809 14.9991 15.3529 14.9533 15.5046 14.8661C15.6563 14.7789 15.7825 14.6534 15.8706 14.5022C15.9586 14.351 16.0055 14.1793 16.0064 14.0043C16.0074 13.8293 15.9623 13.6572 15.8759 13.505L8.8759 1.16699C8.78466 1.0068 8.65093 0.874947 8.48945 0.786005C8.32798 0.697062 8.14504 0.654495 7.96089 0.662989ZM7.0059 3.99899H9.0059V9.99899H7.0059V3.99899ZM7.0059 10.999H9.0059V12.999H7.0059V10.999Z" fill="#FF9800"/>
<path d="M0.000976562 0.00299072H16.001V16.003H0.000976562V0.00299072Z" fill="#808080" fill-opacity="0.00"/>
</g>
<defs>
<clipPath id="clip0_412_3871">
<rect width="16.002" height="16" fill="white"/>
</clipPath>
</defs>
</svg>
