<svg xmlns="http://www.w3.org/2000/svg" xml:space="preserve" style="fill-rule:evenodd;clip-rule:evenodd;stroke-linejoin:round;stroke-miterlimit:2" viewBox="0 0 1100 1100"><path d="M0 0h1100v1100H0z" style="fill:url(#a)"/><circle cx="246.667" cy="806.667" r="38.333" style="fill:#fff" transform="translate(-70 -23.333)"/><circle cx="246.667" cy="806.667" r="38.333" style="fill:#fff" transform="matrix(-1 0 0 1 1170 -116.667)"/><circle cx="246.667" cy="806.667" r="38.333" style="fill:#fff" transform="translate(-70 -116.667)"/><circle cx="246.667" cy="806.667" r="38.333" style="fill:#fff" transform="translate(-70 -210)"/><circle cx="246.667" cy="806.667" r="38.333" style="fill:#fff" transform="matrix(-1 0 0 1 1170 -210)"/><circle cx="246.667" cy="806.667" r="38.333" style="fill:#fff" transform="translate(23.333 70)"/><circle cx="246.667" cy="806.667" r="38.333" style="fill:#fff" transform="matrix(-1 0 0 1 1076.667 70)"/><circle cx="246.667" cy="806.667" r="38.333" style="fill:#fff" transform="translate(116.667 70)"/><circle cx="246.667" cy="806.667" r="38.333" style="fill:#fff" transform="matrix(-1 0 0 1 983.333 70)"/><circle cx="246.667" cy="806.667" r="38.333" style="fill:#fff" transform="translate(23.333 -23.333)"/><circle cx="246.667" cy="806.667" r="38.333" style="fill:#fff" transform="matrix(-1 0 0 1 1076.667 -23.333)"/><circle cx="246.667" cy="806.667" r="38.333" style="fill:#fff" transform="matrix(-1 0 0 1 1170 -23.333)"/><circle cx="246.667" cy="806.667" r="38.333" style="fill:#fff" transform="translate(116.667 -23.333)"/><circle cx="246.667" cy="806.667" r="38.333" style="fill:#fff" transform="matrix(-1 0 0 1 983.333 -23.333)"/><circle cx="246.667" cy="806.667" r="38.333" style="fill:#fff" transform="translate(23.333 -116.667)"/><circle cx="246.667" cy="806.667" r="38.333" style="fill:#fff" transform="matrix(-1 0 0 1 1076.667 -116.667)"/><circle cx="246.667" cy="806.667" r="38.333" style="fill:#fff" transform="translate(116.667 -116.667)"/><circle cx="246.667" cy="806.667" r="38.333" style="fill:#fff" transform="matrix(-1 0 0 1 983.333 -116.667)"/><circle cx="246.667" cy="806.667" r="38.333" style="fill:#fff" transform="translate(23.333 -210)"/><circle cx="246.667" cy="806.667" r="38.333" style="fill:#fff" transform="translate(23.333 -303.333)"/><circle cx="246.667" cy="806.667" r="38.333" style="fill:#fff" transform="translate(583.333 -303.333)"/><circle cx="246.667" cy="806.667" r="38.333" style="fill:#fff" transform="translate(23.333 -396.667)"/><circle cx="246.667" cy="806.667" r="38.333" style="fill:#fff" transform="translate(116.667 -396.667)"/><circle cx="246.667" cy="806.667" r="38.333" style="fill:#fff" transform="translate(116.667 -490)"/><circle cx="246.667" cy="806.667" r="38.333" style="fill:#fff" transform="translate(583.333 -396.667)"/><circle cx="246.667" cy="806.667" r="38.333" style="fill:#fff" transform="translate(490 -396.667)"/><circle cx="246.667" cy="806.667" r="38.333" style="fill:#fff" transform="translate(490 -490)"/><circle cx="246.667" cy="806.667" r="38.333" style="fill:#fff" transform="translate(396.667 -490)"/><circle cx="246.667" cy="806.667" r="38.333" style="fill:#fff" transform="translate(396.667 -583.333)"/><circle cx="246.667" cy="806.667" r="38.333" style="fill:#fff" transform="translate(303.333 -490)"/><circle cx="246.667" cy="806.667" r="38.333" style="fill:#fff" transform="translate(303.333 -583.333)"/><circle cx="246.667" cy="806.667" r="38.333" style="fill:#fff" transform="translate(210 -490)"/><circle cx="246.667" cy="806.667" r="38.333" style="fill:#fff" transform="translate(210 -583.333)"/><circle cx="246.667" cy="806.667" r="38.333" style="fill:#fff" transform="matrix(-1 0 0 1 1076.667 -210)"/><circle cx="246.667" cy="806.667" r="38.333" style="fill:#fff" transform="translate(116.667 -210)"/><circle cx="246.667" cy="806.667" r="38.333" style="fill:#fff" transform="translate(116.667 -303.333)"/><circle cx="246.667" cy="806.667" r="38.333" style="fill:#fff" transform="matrix(-1 0 0 1 983.333 -210)"/><circle cx="246.667" cy="806.667" r="38.333" style="fill:#fff" transform="matrix(-1 0 0 1 983.333 -303.333)"/><defs><linearGradient id="a" x1="0" x2="1" y1="0" y2="0" gradientTransform="rotate(45)scale(1555.63492)" gradientUnits="userSpaceOnUse"><stop offset="0" style="stop-color:#64ffa1;stop-opacity:1"/><stop offset="1" style="stop-color:#017c65;stop-opacity:1"/></linearGradient></defs></svg>