<svg data-v-fde0c5aa="" xmlns="http://www.w3.org/2000/svg" viewBox="0 0 300 300" class="iconAbove"><!----><defs data-v-fde0c5aa=""><!----></defs><rect data-v-fde0c5aa="" fill="#474E3D" x="0" y="0" width="300px" height="300px" class="logo-background-square"></rect><defs data-v-fde0c5aa=""><!----></defs><g data-v-fde0c5aa="" id="c4789bbc-c7d7-44bc-b95c-e8cc9a9bdaef" fill="#FFFFFF" transform="matrix(3.4058163166046143,0,0,3.4058163166046143,18.126801022277952,184.71391414392272)"><path d="M4.70 10.68L4.70 10.68L4.70 10.68Q2.56 10.68 1.55 9.41L1.55 9.41L1.55 9.41Q0.55 8.13 0.55 5.32L0.55 5.32L0.55 4.76L0.55 4.76Q0.55 1.95 1.55 0.67L1.55 0.67L1.55 0.67Q2.56-0.60 4.70-0.60L4.70-0.60L4.70-0.60Q6.86-0.60 7.87 0.67L7.87 0.67L7.87 0.67Q8.88 1.95 8.88 4.76L8.88 4.76L8.88 5.32L8.88 5.32Q8.88 8.13 7.87 9.41L7.87 9.41L7.87 9.41Q6.86 10.68 4.70 10.68ZM4.65 8.72L4.65 8.72L4.77 8.72L4.77 8.72Q5.78 8.72 6.17 7.89L6.17 7.89L6.17 7.89Q6.57 7.06 6.57 5.32L6.57 5.32L6.57 4.76L6.57 4.76Q6.57 3.02 6.17 2.19L6.17 2.19L6.17 2.19Q5.78 1.36 4.77 1.36L4.77 1.36L4.65 1.36L4.65 1.36Q3.64 1.36 3.24 2.19L3.24 2.19L3.24 2.19Q2.84 3.02 2.84 4.76L2.84 4.76L2.84 5.32L2.84 5.32Q2.84 7.06 3.24 7.89L3.24 7.89L3.24 7.89Q3.64 8.72 4.65 8.72ZM14.28 10.68L14.28 10.68L14.28 10.68Q13.08 10.68 12.38 9.87L12.38 9.87L12.38 13.30L10.16 13.30L10.16 5.18L10.04 3.08L12.01 3.08L12.17 3.99L12.17 3.99Q12.89 2.90 14.28 2.90L14.28 2.90L14.28 2.90Q17.04 2.90 17.04 6.54L17.04 6.54L17.04 7.04L17.04 7.04Q17.04 10.68 14.28 10.68ZM13.64 4.80L13.64 4.80L13.64 4.80Q12.85 4.80 12.38 5.50L12.38 5.50L12.38 8.08L12.38 8.08Q12.85 8.78 13.64 8.78L13.64 8.78L13.64 8.78Q14.83 8.78 14.83 7.04L14.83 7.04L14.83 6.54L14.83 6.54Q14.83 4.80 13.64 4.80ZM24.82 6.59L24.82 7.59L20.09 7.59L20.09 7.59Q20.15 8.34 20.50 8.67L20.50 8.67L20.50 8.67Q20.85 9.00 21.49 9.00L21.49 9.00L21.49 9.00Q22.05 9.00 22.39 8.74L22.39 8.74L22.39 8.74Q22.74 8.47 22.74 8.12L22.74 8.12L24.82 8.12L24.82 8.18L24.82 8.18Q24.82 9.27 23.93 9.97L23.93 9.97L23.93 9.97Q23.04 10.68 21.48 10.68L21.48 10.68L21.48 10.68Q19.70 10.68 18.79 9.67L18.79 9.67L18.79 9.67Q17.88 8.67 17.88 6.99L17.88 6.99L17.88 6.59L17.88 6.59Q17.88 4.93 18.79 3.91L18.79 3.91L18.79 3.91Q19.70 2.90 21.39 2.90L21.39 2.90L21.39 2.90Q23.09 2.90 23.95 3.91L23.95 3.91L23.95 3.91Q24.82 4.91 24.82 6.59L24.82 6.59ZM22.60 5.99L22.60 5.99Q22.50 4.58 21.35 4.58L21.35 4.58L21.35 4.58Q20.20 4.58 20.10 5.99L20.10 5.99L22.60 5.99ZM32.69 5.47L32.69 10.50L30.49 10.50L30.49 5.84L30.49 5.84Q30.49 4.80 29.51 4.80L29.51 4.80L29.51 4.80Q28.66 4.80 28.21 5.50L28.21 5.50L28.21 10.50L26.00 10.50L26.00 5.18L25.87 3.08L27.85 3.08L28.01 4.03L28.01 4.03Q28.81 2.90 30.39 2.90L30.39 2.90L30.39 2.90Q31.57 2.90 32.13 3.63L32.13 3.63L32.13 3.63Q32.69 4.35 32.69 5.47L32.69 5.47ZM37.42 5.94L37.42 5.94L37.42 5.94Q35.59 5.68 34.75 4.97L34.75 4.97L34.75 4.97Q33.92 4.26 33.92 2.80L33.92 2.80L33.92 2.65L33.92 2.65Q33.92 1.15 34.92 0.27L34.92 0.27L34.92 0.27Q35.92-0.60 37.77-0.60L37.77-0.60L37.77-0.60Q39.77-0.60 40.70 0.31L40.70 0.31L40.70 0.31Q41.64 1.22 41.64 3.15L41.64 3.15L41.64 3.44L39.37 3.44L39.37 3.44Q39.37 2.35 39.00 1.86L39.00 1.86L39.00 1.86Q38.64 1.36 37.79 1.36L37.79 1.36L37.66 1.36L37.66 1.36Q36.99 1.36 36.60 1.69L36.60 1.69L36.60 1.69Q36.22 2.03 36.22 2.56L36.22 2.56L36.22 2.63L36.22 2.63Q36.22 3.28 36.60 3.59L36.60 3.59L36.60 3.59Q36.99 3.91 38.14 4.06L38.14 4.06L38.14 4.06Q39.98 4.31 40.85 5.03L40.85 5.03L40.85 5.03Q41.72 5.75 41.72 7.22L41.72 7.22L41.72 7.36L41.72 7.36Q41.72 8.95 40.70 9.81L40.70 9.81L40.70 9.81Q39.68 10.68 37.77 10.68L37.77 10.68L37.77 10.68Q35.81 10.68 34.82 9.77L34.82 9.77L34.82 9.77Q33.84 8.85 33.84 6.90L33.84 6.90L33.84 6.78L36.11 6.78L36.11 6.78Q36.11 8.72 37.72 8.72L37.72 8.72L37.84 8.72L37.84 8.72Q38.60 8.72 39.00 8.37L39.00 8.37L39.00 8.37Q39.41 8.01 39.41 7.43L39.41 7.43L39.41 7.36L39.41 7.36Q39.41 6.75 38.98 6.42L38.98 6.42L38.98 6.42Q38.56 6.09 37.42 5.94ZM45.04 4.76L45.04 5.32L45.04 5.32Q45.04 7.07 45.42 7.90L45.42 7.90L45.42 7.90Q45.81 8.72 46.84 8.72L46.84 8.72L46.97 8.72L46.97 8.72Q48.48 8.72 48.48 6.78L48.48 6.78L50.75 6.78L50.75 6.90L50.75 6.90Q50.75 8.89 49.78 9.79L49.78 9.79L49.78 9.79Q48.82 10.68 46.84 10.68L46.84 10.68L46.84 10.68Q44.70 10.68 43.72 9.41L43.72 9.41L43.72 9.41Q42.74 8.15 42.74 5.32L42.74 5.32L42.74 4.76L42.74 4.76Q42.74 1.93 43.72 0.66L43.72 0.66L43.72 0.66Q44.70-0.60 46.84-0.60L46.84-0.60L46.84-0.60Q48.83-0.60 49.79 0.30L49.79 0.30L49.79 0.30Q50.75 1.20 50.75 3.22L50.75 3.22L50.75 3.72L48.48 3.72L48.48 3.72Q48.48 2.52 48.15 1.94L48.15 1.94L48.15 1.94Q47.82 1.36 46.97 1.36L46.97 1.36L46.84 1.36L46.84 1.36Q45.81 1.36 45.42 2.18L45.42 2.18L45.42 2.18Q45.04 3.01 45.04 4.76L45.04 4.76ZM56 10.68L56 10.68L56 10.68Q53.86 10.68 52.85 9.41L52.85 9.41L52.85 9.41Q51.84 8.13 51.84 5.32L51.84 5.32L51.84 4.76L51.84 4.76Q51.84 1.95 52.85 0.67L52.85 0.67L52.85 0.67Q53.86-0.60 56-0.60L56-0.60L56-0.60Q58.16-0.60 59.16 0.67L59.16 0.67L59.16 0.67Q60.17 1.95 60.17 4.76L60.17 4.76L60.17 5.32L60.17 5.32Q60.17 9.24 58.10 10.26L58.10 10.26L58.76 11.90L56.99 11.90L56.52 10.65L56.52 10.65Q56.18 10.68 56 10.68ZM55.03 6.83L56.74 6.83L57.27 8.19L57.27 8.19Q57.86 7.45 57.86 5.32L57.86 5.32L57.86 4.76L57.86 4.76Q57.86 3.02 57.47 2.19L57.47 2.19L57.47 2.19Q57.08 1.36 56.07 1.36L56.07 1.36L55.94 1.36L55.94 1.36Q54.94 1.36 54.54 2.19L54.54 2.19L54.54 2.19Q54.14 3.02 54.14 4.76L54.14 4.76L54.14 5.32L54.14 5.32Q54.14 6.97 54.49 7.80L54.49 7.80L54.49 7.80Q54.85 8.64 55.76 8.72L55.76 8.72L55.03 6.83ZM61.26 7L63.50 7L63.50 7Q63.50 8.72 64.85 8.72L64.85 8.72L64.99 8.72L64.99 8.72Q65.56 8.72 65.95 8.37L65.95 8.37L65.95 8.37Q66.33 8.02 66.33 7.34L66.33 7.34L66.33 7.18L66.33 7.18Q66.33 6.55 65.98 6.23L65.98 6.23L65.98 6.23Q65.63 5.91 65.02 5.91L65.02 5.91L63.52 5.91L63.52 3.95L64.97 3.95L64.97 3.95Q66.26 3.95 66.26 2.70L66.26 2.70L66.26 2.58L66.26 2.58Q66.26 2.03 65.91 1.69L65.91 1.69L65.91 1.69Q65.55 1.36 64.99 1.36L64.99 1.36L64.85 1.36L64.85 1.36Q63.57 1.36 63.57 3.22L63.57 3.22L61.33 3.22L61.33 2.94L61.33 2.94Q61.33-0.60 64.92-0.60L64.92-0.60L64.92-0.60Q65.87-0.60 66.59-0.34L66.59-0.34L66.59-0.34Q67.31-0.07 67.71 0.36L67.71 0.36L67.71 0.36Q68.11 0.80 68.31 1.29L68.31 1.29L68.31 1.29Q68.50 1.79 68.50 2.31L68.50 2.31L68.50 2.58L68.50 2.58Q68.50 4.16 67.23 4.91L67.23 4.91L67.23 4.91Q68.57 5.68 68.57 7.31L68.57 7.31L68.57 7.57L68.57 7.57Q68.57 8.12 68.36 8.64L68.36 8.64L68.36 8.64Q68.15 9.17 67.73 9.64L67.73 9.64L67.73 9.64Q67.31 10.11 66.58 10.39L66.58 10.39L66.58 10.39Q65.86 10.68 64.92 10.68L64.92 10.68L64.92 10.68Q63.10 10.68 62.18 9.78L62.18 9.78L62.18 9.78Q61.26 8.88 61.26 7.18L61.26 7.18L61.26 7ZM76.89 2.67L76.89 7.41L76.89 7.41Q76.89 8.88 75.96 9.78L75.96 9.78L75.96 9.78Q75.04 10.68 73.32 10.68L73.32 10.68L73.32 10.68Q71.60 10.68 70.67 9.78L70.67 9.78L70.67 9.78Q69.75 8.88 69.75 7.41L69.75 7.41L69.75 2.67L69.75 2.67Q69.75 1.20 70.67 0.30L70.67 0.30L70.67 0.30Q71.60-0.60 73.32-0.60L73.32-0.60L73.32-0.60Q75.04-0.60 75.96 0.30L75.96 0.30L75.96 0.30Q76.89 1.20 76.89 2.67L76.89 2.67ZM74.65 7.38L74.65 2.70L74.65 2.70Q74.65 2.09 74.32 1.72L74.32 1.72L74.32 1.72Q73.99 1.36 73.35 1.36L73.35 1.36L73.29 1.36L73.29 1.36Q72.65 1.36 72.32 1.72L72.32 1.72L72.32 1.72Q71.99 2.09 71.99 2.70L71.99 2.70L71.99 7.38L71.99 7.38Q71.99 7.99 72.32 8.36L72.32 8.36L72.32 8.36Q72.65 8.72 73.29 8.72L73.29 8.72L73.35 8.72L73.35 8.72Q73.99 8.72 74.32 8.36L74.32 8.36L74.32 8.36Q74.65 7.99 74.65 7.38L74.65 7.38Z"></path></g><defs data-v-fde0c5aa=""><!----></defs><g data-v-fde0c5aa="" id="35f85c5c-cf64-4c99-a1ee-f45cd1f94d17" stroke="none" fill="#95CD43" transform="matrix(0.944623589515686,0,0,0.944623589515686,102.79934362728959,69.98860609551075)"><path d="M15.281 66.527c-3.912-14.854-4.723-30.193 4.221-43.656C25.92 13.211 37.953 8.5 50.002 8.5c12.957 0 23.095 4.306 29.938 13.516 9.817 13.212 8.66 29.667 4.718 44.511-1.049 3.947 5.48 5.623 6.532 1.679 4.446-16.748 5.107-35.397-5.4-50.375C78.008 6.744 64.612.327 50.527.011c-14.232-.32-27.35 6.45-35.649 16.987C3.384 31.587 4.354 51.523 8.751 68.206c1.039 3.948 7.572 2.273 6.53-1.679z"></path><path d="M73.271 93.17l6.284 1.137 5.033-24.105-6.287-1.139zM60.373 94.832c-.48 2.3 1.84 4.65 5.178 5.258 3.338.604 6.435-.77 6.916-3.07l6.876-32.961c.484-2.301-1.838-4.656-5.174-5.262-3.338-.604-6.437.771-6.912 3.071l-6.884 32.964zM82.131 89.794c-.188.901.304 1.743 1.097 1.886l1.481.27c.792.145 1.588-.467 1.775-1.363l4.413-21.138c.187-.899-.305-1.739-1.098-1.886l-1.479-.271c-.795-.144-1.592.472-1.779 1.366l-4.41 21.136zM26.713 93.168l-6.284 1.139-5.032-24.105 6.286-1.139z"></path><path d="M39.608 94.83c.481 2.302-1.837 4.65-5.174 5.26-3.338.604-6.438-.77-6.917-3.07l-6.879-32.961c-.479-2.301 1.837-4.656 5.175-5.262 3.34-.604 6.437.771 6.917 3.071l6.878 32.962zM17.853 89.794c.185.899-.306 1.743-1.099 1.883l-1.479.271c-.793.145-1.59-.467-1.777-1.361L9.085 69.445c-.188-.896.306-1.738 1.1-1.885l1.478-.269c.796-.146 1.591.467 1.777 1.364l4.413 21.139z"></path></g><!----></svg>